<svg width="40" height="40" viewBox="0 0 40 40" fill="none" xmlns="http://www.w3.org/2000/svg">
<path fill-rule="evenodd" clip-rule="evenodd" d="M19.9999 3.33331C15.4733 3.33331 14.9066 3.3522 13.1288 3.43331C11.3544 3.51443 10.1421 3.79665 9.08213 4.20886C7.97103 4.62665 6.96325 5.2822 6.12992 6.1311C5.28239 6.96346 4.62644 7.97053 4.2077 9.0822C3.7977 10.1422 3.51437 11.3555 3.43325 13.13C3.35325 14.9066 3.33325 15.4722 3.33325 20C3.33325 24.5278 3.35214 25.0933 3.43325 26.8711C3.51437 28.6455 3.79659 29.8578 4.2088 30.9178C4.62659 32.0288 5.28214 33.0366 6.13104 33.87C6.96342 34.7175 7.97048 35.3735 9.08213 35.7921C10.1421 36.2033 11.3544 36.4855 13.1288 36.5666C14.9066 36.6478 15.4733 36.6666 19.9999 36.6666C24.5266 36.6666 25.0933 36.6478 26.8711 36.5666C28.6454 36.4855 29.8578 36.2033 30.9178 35.7911C32.0287 35.3733 33.0366 34.7178 33.8699 33.8688C34.7174 33.0365 35.3734 32.0295 35.7921 30.9178C36.2033 29.8578 36.4854 28.6455 36.5666 26.8711C36.6478 25.0933 36.6666 24.5266 36.6666 20C36.6666 15.4733 36.6478 14.9066 36.5666 13.1289C36.4854 11.3544 36.2033 10.1422 35.7911 9.0822C35.3726 7.97005 34.7166 6.96256 33.8688 6.12998C33.0364 5.28245 32.0294 4.6265 30.9178 4.20776C29.8578 3.79776 28.6444 3.51443 26.8699 3.43331C25.0933 3.35331 24.5278 3.33331 19.9999 3.33331ZM19.9999 6.33665C24.4499 6.33665 24.9778 6.35331 26.7354 6.43331C28.3599 6.50776 29.2421 6.77776 29.8299 7.00776C30.6078 7.30886 31.1633 7.6711 31.7466 8.25331C32.3299 8.83665 32.6911 9.3922 32.9921 10.17C33.2211 10.7578 33.4921 11.64 33.5666 13.2644C33.6466 15.0222 33.6633 15.55 33.6633 20C33.6633 24.45 33.6466 24.9778 33.5666 26.7355C33.4921 28.36 33.2221 29.2421 32.9921 29.83C32.7254 30.554 32.2998 31.2088 31.7466 31.7466C31.2089 32.3 30.5539 32.7256 29.8299 32.9921C29.2421 33.2211 28.3599 33.4921 26.7354 33.5666C24.9778 33.6466 24.4511 33.6633 19.9999 33.6633C15.5488 33.6633 15.0221 33.6466 13.2644 33.5666C11.6399 33.4921 10.7577 33.2221 10.1699 32.9921C9.44599 32.7255 8.79104 32.2998 8.25325 31.7466C7.70012 31.2088 7.2745 30.5538 7.0077 29.83C6.7788 29.2421 6.5077 28.36 6.43325 26.7355C6.35325 24.9778 6.33659 24.45 6.33659 20C6.33659 15.55 6.35325 15.0222 6.43325 13.2644C6.5077 11.64 6.7777 10.7578 7.0077 10.17C7.3088 9.3922 7.67104 8.83665 8.25325 8.25331C8.79097 7.70003 9.44594 7.2744 10.1699 7.00776C10.7577 6.77886 11.6399 6.50776 13.2644 6.43331C15.0221 6.35331 15.5499 6.33665 19.9999 6.33665Z" fill="white"/>
<path fill-rule="evenodd" clip-rule="evenodd" d="M20 25.5612C19.2696 25.5612 18.5466 25.4174 17.8718 25.1379C17.1971 24.8584 16.5841 24.4487 16.0677 23.9324C15.5513 23.4159 15.1417 22.8029 14.8622 22.1282C14.5827 21.4535 14.4389 20.7304 14.4389 20C14.4389 19.2697 14.5827 18.5465 14.8622 17.8719C15.1417 17.1972 15.5513 16.5841 16.0677 16.0677C16.5841 15.5513 17.1971 15.1417 17.8718 14.8622C18.5466 14.5828 19.2696 14.4389 20 14.4389C21.475 14.4389 22.8893 15.0248 23.9323 16.0677C24.9751 17.1107 25.5611 18.5252 25.5611 20C25.5611 21.4749 24.9751 22.8894 23.9323 23.9324C22.8893 24.9752 21.475 25.5612 20 25.5612ZM20 11.4334C17.728 11.4334 15.549 12.3359 13.9425 13.9425C12.3359 15.549 11.4333 17.728 11.4333 20C11.4333 22.272 12.3359 24.451 13.9425 26.0575C15.549 27.6642 17.728 28.5667 20 28.5667C22.272 28.5667 24.451 27.6642 26.0575 26.0575C27.6641 24.451 28.5666 22.272 28.5666 20C28.5666 17.728 27.6641 15.549 26.0575 13.9425C24.451 12.3359 22.272 11.4334 20 11.4334ZM31.0588 11.2778C31.0588 11.8149 30.8455 12.3299 30.4658 12.7097C30.086 13.0895 29.571 13.3028 29.034 13.3028C28.4968 13.3028 27.9818 13.0895 27.602 12.7097C27.2223 12.3299 27.0088 11.8149 27.0088 11.2778C27.0088 10.7407 27.2223 10.2257 27.602 9.84591C27.9818 9.46616 28.4968 9.25281 29.034 9.25281C29.571 9.25281 30.086 9.46616 30.4658 9.84591C30.8455 10.2257 31.0588 10.7407 31.0588 11.2778Z" fill="white"/>
</svg>
