<svg width="220" height="40" viewBox="0 0 220 40" fill="none" xmlns="http://www.w3.org/2000/svg">
<path d="M56.8195 34L50.9795 23.4H49.3395V34H42.4995V5.92H53.9795C56.1929 5.92 58.0729 6.30667 59.6195 7.08C61.1929 7.85333 62.3662 8.92 63.1395 10.28C63.9129 11.6133 64.2995 13.1067 64.2995 14.76C64.2995 16.6267 63.7662 18.2933 62.6995 19.76C61.6595 21.2267 60.1129 22.2667 58.0595 22.88L64.5395 34H56.8195ZM49.3395 18.56H53.5795C54.8329 18.56 55.7662 18.2533 56.3795 17.64C57.0195 17.0267 57.3395 16.16 57.3395 15.04C57.3395 13.9733 57.0195 13.1333 56.3795 12.52C55.7662 11.9067 54.8329 11.6 53.5795 11.6H49.3395V18.56ZM75.8733 28.4H87.9533V34H68.1133V28.8L80.1133 11.52H68.1133V5.92H87.9533V11.12L75.8733 28.4ZM117.541 34H110.701L99.2614 16.68V34H92.4214V5.92H99.2614L110.701 23.32V5.92H117.541V34ZM136.82 34L130.98 23.4H129.34V34H122.5V5.92H133.98C136.193 5.92 138.073 6.30667 139.62 7.08C141.193 7.85333 142.366 8.92 143.14 10.28C143.913 11.6133 144.3 13.1067 144.3 14.76C144.3 16.6267 143.766 18.2933 142.7 19.76C141.66 21.2267 140.113 22.2667 138.06 22.88L144.54 34H136.82ZM129.34 18.56H133.58C134.833 18.56 135.766 18.2533 136.38 17.64C137.02 17.0267 137.34 16.16 137.34 15.04C137.34 13.9733 137.02 13.1333 136.38 12.52C135.766 11.9067 134.833 11.6 133.58 11.6H129.34V18.56ZM165.593 19.6C167.22 19.9467 168.527 20.76 169.513 22.04C170.5 23.2933 170.993 24.7333 170.993 26.36C170.993 28.7067 170.167 30.5733 168.513 31.96C166.887 33.32 164.607 34 161.673 34H148.593V5.92H161.233C164.087 5.92 166.313 6.57333 167.913 7.88C169.54 9.18667 170.353 10.96 170.353 13.2C170.353 14.8533 169.913 16.2267 169.033 17.32C168.18 18.4133 167.033 19.1733 165.593 19.6ZM155.433 17.28H159.913C161.033 17.28 161.887 17.04 162.473 16.56C163.087 16.0533 163.393 15.32 163.393 14.36C163.393 13.4 163.087 12.6667 162.473 12.16C161.887 11.6533 161.033 11.4 159.913 11.4H155.433V17.28ZM160.473 28.48C161.62 28.48 162.5 28.2267 163.113 27.72C163.753 27.1867 164.073 26.4267 164.073 25.44C164.073 24.4533 163.74 23.68 163.073 23.12C162.433 22.56 161.54 22.28 160.393 22.28H155.433V28.48H160.473ZM192.92 9.92L182.88 34H175.88L186.04 10.68H173.6V4.84H192.92V9.92ZM195.687 19C195.687 14.4133 196.567 10.8 198.327 8.16C200.113 5.52 202.98 4.2 206.927 4.2C210.873 4.2 213.727 5.52 215.487 8.16C217.273 10.8 218.167 14.4133 218.167 19C218.167 23.64 217.273 27.28 215.487 29.92C213.727 32.56 210.873 33.88 206.927 33.88C202.98 33.88 200.113 32.56 198.327 29.92C196.567 27.28 195.687 23.64 195.687 19ZM211.447 19C211.447 16.3067 211.153 14.24 210.567 12.8C209.98 11.3333 208.767 10.6 206.927 10.6C205.087 10.6 203.873 11.3333 203.287 12.8C202.7 14.24 202.407 16.3067 202.407 19C202.407 20.8133 202.513 22.32 202.727 23.52C202.94 24.6933 203.367 25.6533 204.007 26.4C204.673 27.12 205.647 27.48 206.927 27.48C208.207 27.48 209.167 27.12 209.807 26.4C210.473 25.6533 210.913 24.6933 211.127 23.52C211.34 22.32 211.447 20.8133 211.447 19Z" fill="white"/>
<g clip-path="url(#clip0_13_133)">
<path d="M18.5731 26.0718L22.0979 30.6873L21.4932 34H16.8048C16.3222 34 15.9309 33.6093 15.9309 33.1274C15.9309 32.7968 16.1178 32.4948 16.414 32.3469L16.8687 32.12L16.2013 28.1215C17.0913 27.5592 17.8912 26.8674 18.5731 26.0718ZM7.92129 29.3784L6.67273 31.4219L7.96004 33.9927H12.6489C12.6489 33.2558 12.3015 32.562 11.7111 32.1199L13.3259 29.3799C12.463 29.6105 11.5569 29.7343 10.622 29.7343C9.70538 29.7343 8.79694 29.6126 7.92129 29.3784ZM23.8311 15.31C24.5373 15.6526 26.1681 16.1616 27.8232 15.7457C28.1785 15.6564 29.0498 15.274 29.5885 14.5242C30.2662 13.5809 30.0917 12.2352 29.1768 11.5185L28.1218 9.64566V7.77268L27.4186 7.42149L23.5695 4.55481C22.7275 3.88053 21.9324 3.79541 21.1799 4.44005L18.2726 7.16458C18.098 7.14268 17.922 7.12899 17.7444 7.12899C17.2357 7.12899 16.7188 7.2203 16.2158 7.41339C15.4821 7.69434 14.8408 8.17185 14.3626 8.79232L9.36656 15.2641C9.36656 15.2641 7.60429 15.2641 7.48329 15.2641C3.88936 15.2641 0.975925 18.1734 0.975925 21.7622C0.975925 23.244 1.47366 24.6088 2.30997 25.7015L0.315938 29.2486C-0.0404029 29.8818 -0.0978657 30.6392 0.156544 31.3181L1.16345 33.9998H6.08785V33.9927C6.08546 33.2554 5.73735 32.5624 5.14651 32.1199L7.49795 28.2734C8.59713 28.6521 10.9926 29.2136 13.6518 28.3068C16.3825 27.3757 17.8136 25.6088 18.5729 24.5277L24.3707 32.1199L23.9135 32.3481C23.6192 32.4956 23.4329 32.7964 23.4329 33.1254C23.4329 33.604 23.822 33.9927 24.3015 33.9939L29.4592 33.9998L29.9387 31.4784C30.0102 31.1027 29.9727 30.7164 29.8298 30.3618L23.8311 15.31Z" fill="white"/>
</g>
<defs>
<clipPath id="clip0_13_133">
<rect width="30" height="30" fill="white" transform="translate(0 4)"/>
</clipPath>
</defs>
</svg>
