<svg width="40" height="40" viewBox="0 0 40 40" fill="none" xmlns="http://www.w3.org/2000/svg">
<path fill-rule="evenodd" clip-rule="evenodd" d="M36.6666 20C36.6666 29.2046 29.2046 36.6666 19.9999 36.6666C10.7952 36.6666 3.33325 29.2046 3.33325 20C3.33325 10.7952 10.7952 3.33331 19.9999 3.33331C29.2046 3.33331 36.6666 10.7952 36.6666 20ZM20.5971 15.6374C18.9761 16.3116 15.7362 17.7071 10.8775 19.824C10.0886 20.1378 9.67525 20.4448 9.63764 20.7448C9.57405 21.2521 10.2092 21.4518 11.0742 21.7238C11.1918 21.7608 11.3137 21.7991 11.4387 21.8396C12.2897 22.1163 13.4344 22.44 14.0295 22.4528C14.5693 22.4645 15.1718 22.242 15.8369 21.7851C20.3766 18.7208 22.7199 17.172 22.8669 17.1385C22.9708 17.115 23.1146 17.0853 23.2121 17.172C23.3096 17.2586 23.2999 17.4226 23.2896 17.4666C23.2268 17.735 20.7334 20.053 19.4431 21.2525C19.0409 21.6265 18.7556 21.8916 18.6973 21.9523C18.5666 22.088 18.4334 22.2163 18.3054 22.3396C17.5149 23.1018 16.9219 23.6733 18.3383 24.6066C19.0189 25.0551 19.5634 25.426 20.1068 25.796C20.7001 26.2001 21.2919 26.6031 22.0578 27.1051C22.2528 27.233 22.4391 27.3658 22.6206 27.4951C23.3111 27.9875 23.9314 28.4298 24.6979 28.3591C25.1433 28.3183 25.6033 27.8995 25.8369 26.6505C26.3891 23.6988 27.4744 17.3033 27.7253 14.668C27.7473 14.4371 27.7196 14.1416 27.6974 14.0119C27.6751 13.8822 27.6288 13.6973 27.4601 13.5605C27.2604 13.3985 26.9523 13.3643 26.8143 13.3666C26.1874 13.3778 25.2256 13.7122 20.5971 15.6374Z" fill="white"/>
</svg>
