<svg width="40" height="40" viewBox="0 0 40 40" fill="none" xmlns="http://www.w3.org/2000/svg">
<path fill-rule="evenodd" clip-rule="evenodd" d="M5.66659 5.66665C3.33325 8.0222 3.33325 11.7889 3.33325 19.3333V20.6666C3.33325 28.2 3.33325 31.9666 5.66659 34.3333C8.02214 36.6666 11.7888 36.6666 19.3333 36.6666H20.6666C28.1999 36.6666 31.9666 36.6666 34.3333 34.3333C36.6666 31.9778 36.6666 28.2111 36.6666 20.6666V19.3333C36.6666 11.8 36.6666 8.03331 34.3333 5.66665C31.9778 3.33331 28.2111 3.33331 20.6666 3.33331H19.3333C11.7999 3.33331 8.03325 3.33331 5.66659 5.66665ZM8.95547 13.4778C9.13325 22.1445 13.4666 27.3445 21.0666 27.3445H21.5111V22.3888C24.2999 22.6666 26.4111 24.7111 27.2554 27.3445H31.1999C30.7954 25.8481 30.0781 24.4545 29.0956 23.2555C28.1131 22.0566 26.8876 21.0796 25.4999 20.3888C26.7434 19.6316 27.8174 18.626 28.6548 17.435C29.4921 16.244 30.0749 14.8931 30.3666 13.4666H26.7888C26.0111 16.2222 23.6999 18.7221 21.5111 18.9555V13.4778H17.9221V23.0778C15.6999 22.5221 12.8999 19.8333 12.7777 13.4778H8.95547Z" fill="white"/>
</svg>
